<svg xmlns="http://www.w3.org/2000/svg" version="1.1" xmlns:xlink="http://www.w3.org/1999/xlink" xmlns:svgjs="http://svgjs.dev/svgjs" width="2000" height="1247" viewBox="0 0 2000 1247"><g transform="matrix(1,0,0,1,-1.2121212121212466,0.5048582995951847)"><svg viewBox="0 0 396 247" data-background-color="#ffffff" preserveAspectRatio="xMidYMid meet" height="1247" width="2000" xmlns="http://www.w3.org/2000/svg" xmlns:xlink="http://www.w3.org/1999/xlink"><g id="tight-bounds" transform="matrix(1,0,0,1,0.2400000000000091,-0.09999999999999432)"><svg viewBox="0 0 395.52 247.2" height="247.2" width="395.52"><g><svg></svg></g><g><svg viewBox="0 0 395.52 247.2" height="247.2" width="395.52"><g transform="matrix(1,0,0,1,75.54432,47.95636389297266)"><svg viewBox="0 0 244.43135999999998 151.28727221405467" height="151.28727221405467" width="244.43135999999998"><g><svg viewBox="0 0 244.43135999999998 151.28727221405467" height="151.28727221405467" width="244.43135999999998"><g><svg viewBox="0 0 244.43135999999998 151.28727221405467" height="151.28727221405467" width="244.43135999999998"><g><svg viewBox="0 0 244.43135999999998 151.28727221405467" height="151.28727221405467" width="244.43135999999998"><g id="textblocktransform"><svg viewBox="0 0 244.43135999999998 151.28727221405467" height="151.28727221405467" width="244.43135999999998" id="textblock"><g><svg viewBox="0 0 244.43135999999998 151.28727221405467" height="151.28727221405467" width="244.43135999999998"><g transform="matrix(1,0,0,1,0,0)"><svg width="244.43135999999998" viewBox="-1.3700000047683716 -37.77000045776367 83.0300064086914 51.38999938964844" height="151.28727221405467" data-palette-color="#ff0000"><path d="M0.24 13.62L-1.37 11.25Q0.29 9.91 1.35 8.35 2.42 6.79 3.02 5.1 3.61 3.42 3.83 1.68 4.05-0.05 4.05-1.73L4.05-1.73 4.05-25.88 9.99-25.88 9.99-3.03Q9.99-0.66 9.51 1.72 9.03 4.1 7.91 6.3 6.79 8.5 4.92 10.38 3.05 12.26 0.24 13.62L0.24 13.62ZM6.98-30.98L6.98-30.98Q6.2-30.98 5.55-31.24 4.91-31.49 4.44-31.93 3.98-32.37 3.71-32.98 3.44-33.59 3.44-34.3L3.44-34.3Q3.44-35.03 3.72-35.66 4-36.28 4.5-36.76 5-37.23 5.68-37.5 6.35-37.77 7.13-37.77L7.13-37.77Q7.89-37.77 8.53-37.5 9.18-37.23 9.64-36.78 10.11-36.33 10.36-35.71 10.62-35.08 10.62-34.38L10.62-34.38Q10.62-33.64 10.34-33.02 10.06-32.4 9.56-31.95 9.06-31.49 8.4-31.24 7.74-30.98 6.98-30.98ZM36.84-5.32L36.84-2.37Q35.1-0.98 32.98-0.24 30.86 0.49 28.42 0.49L28.42 0.49Q25.68 0.49 23.48-0.43 21.29-1.34 19.75-2.97 18.21-4.59 17.38-6.85 16.55-9.11 16.55-11.82L16.55-11.82Q16.55-15.01 17.67-17.69 18.8-20.36 20.74-22.29 22.68-24.22 25.31-25.29 27.95-26.37 30.98-26.37L30.98-26.37Q31.64-26.37 32.39-26.31 33.15-26.25 33.95-26.12 34.74-26 35.51-25.79 36.28-25.59 36.94-25.29L36.94-25.29 35.89-20.75 35.37-20.51Q34.93-20.83 34.34-21.13 33.74-21.44 33.05-21.66 32.37-21.88 31.64-22.01 30.91-22.14 30.2-22.14L30.2-22.14Q28.64-22.14 27.28-21.53 25.93-20.92 24.91-19.75 23.9-18.58 23.31-16.88 22.73-15.19 22.73-13.04L22.73-13.04Q22.73-10.79 23.36-9.11 24-7.42 25.12-6.29 26.24-5.15 27.78-4.58 29.32-4 31.13-4L31.13-4Q32.25-4 33.69-4.27 35.13-4.54 36.84-5.32L36.84-5.32ZM41.43-25.88L47.87-25.88 52.02-8.84 52.78-4.44 53.24-4.44 54.1-8.79 58.69-25.1 65.28-25.1 69.84-8.84 70.75-4.44 71.24-4.44 71.99-8.79 76.19-25.88 81.66-25.88 73.85 0 67.26 0 62.91-14.94 61.84-19.85 61.35-19.85 60.22-14.92 55.76 0 49.14 0 41.43-25.88Z" opacity="1" transform="matrix(1,0,0,1,0,0)" fill="#ff0000" class="undefined-text-0" data-fill-palette-color="primary" id="text-0"></path></svg></g></svg></g></svg></g></svg></g></svg></g></svg></g></svg></g><g><path d="M245.816 0c68.262 0 123.6 55.338 123.6 123.6 0 68.262-55.338 123.6-123.6 123.6-30.909 0-59.167-11.345-80.839-30.099h10.865c19.501 14.618 43.726 23.277 69.974 23.277 64.495 0 116.778-52.283 116.778-116.778 0-64.495-52.283-116.778-116.778-116.778-26.247 0-50.472 8.659-69.974 23.277h-10.865c21.672-18.753 49.93-30.099 80.839-30.099z" fill="#ff0000" stroke="transparent" data-fill-palette-color="tertiary"></path></g></svg></g><defs></defs></svg><rect width="395.52" height="247.2" fill="none" stroke="none" visibility="hidden"></rect></g></svg></g></svg>